<?xml version="1.0" encoding="utf-8"?><svg xmlns="http://www.w3.org/2000/svg" xmlns:xlink="http://www.w3.org/1999/xlink"><symbol viewBox="0 0 512 512" id="github" xmlns="http://www.w3.org/2000/svg"><path d="M256 0C115.39 0 0 115.39 0 256c0 119.988 84.195 228.984 196 256v-84.695c-11.078 2.425-21.273 2.496-32.55-.828-15.13-4.465-27.423-14.543-36.548-29.91-5.816-9.813-16.125-20.454-26.879-19.672l-2.636-29.883c23.254-1.992 43.37 14.168 55.312 34.23 5.305 8.922 11.41 14.153 19.246 16.465 7.575 2.23 15.707 1.16 25.184-2.187 2.379-18.973 11.07-26.075 17.637-36.075v-.015c-66.68-9.946-93.254-45.32-103.801-73.242-13.977-37.075-6.477-83.391 18.238-112.66.48-.571 1.348-2.063 1.012-3.106-11.332-34.23 2.476-62.547 2.984-65.55 13.078 3.866 15.203-3.892 56.809 21.386l7.191 4.32c3.008 1.793 2.063.77 5.07.543 17.372-4.719 35.684-7.324 53.727-7.558 18.18.234 36.375 2.84 54.465 7.75l2.328.234c-.203-.031.633-.149 2.035-.984 51.973-31.481 50.106-21.192 64.043-25.723.504 3.008 14.13 31.785 2.918 65.582-1.512 4.656 45.059 47.3 19.246 115.754-10.547 27.933-37.117 63.308-103.797 73.254v.015c8.547 13.028 18.817 19.957 18.762 46.832V512c111.809-27.016 196-136.012 196-256C512 115.39 396.61 0 256 0zm0 0"/></symbol><symbol viewBox="0 0 512.001 512.001" id="instagram" xmlns="http://www.w3.org/2000/svg"><path d="M373.406 0H138.594C62.172 0 0 62.172 0 138.594V373.41C0 449.828 62.172 512 138.594 512H373.41C449.828 512 512 449.828 512 373.41V138.594C512 62.172 449.828 0 373.406 0zM256 395.996c-77.195 0-139.996-62.8-139.996-139.996S178.804 116.004 256 116.004 395.996 178.804 395.996 256 333.196 395.996 256 395.996zM399.344 149.02c-22.813 0-41.367-18.555-41.367-41.368s18.554-41.37 41.367-41.37 41.37 18.558 41.37 41.37-18.558 41.368-41.37 41.368zm0 0"/><path d="M256 146.02c-60.64 0-109.98 49.335-109.98 109.98 0 60.64 49.34 109.98 109.98 109.98 60.645 0 109.98-49.34 109.98-109.98 0-60.645-49.335-109.98-109.98-109.98zM399.344 96.3c-6.258 0-11.352 5.095-11.352 11.352 0 6.258 5.094 11.352 11.352 11.352 6.261 0 11.355-5.09 11.355-11.352 0-6.261-5.094-11.351-11.355-11.351zm0 0"/></symbol><symbol viewBox="0 0 515.558 515.558" id="search" xmlns="http://www.w3.org/2000/svg"><path d="M378.344 332.78c25.37-34.645 40.545-77.2 40.545-123.333C418.889 93.963 324.928.002 209.444.002S0 93.963 0 209.447s93.961 209.445 209.445 209.445c46.133 0 88.692-15.177 123.337-40.547l137.212 137.212 45.564-45.564L378.344 332.78zm-168.899 21.667c-79.958 0-145-65.042-145-145s65.042-145 145-145 145 65.042 145 145-65.043 145-145 145z"/></symbol><symbol viewBox="0 0 0 0" id="symbol--sprite" xmlns="http://www.w3.org/2000/svg"/><symbol viewBox="0 -121 512 512" id="vk" xmlns="http://www.w3.org/2000/svg"><path d="M457.742 95.48C510.722 23.754 498.972 22.41 512 0H410.473s-7.215 25.05-9.418 29.535c-19.5 39.66-63.239 99.168-89.692 105.25-26.047 5.992-22.59-55.562-20.984-82.226 1.512-24.715 1.254-33.364.527-37.633-1.062-6.238-6.297-10.79-12.578-11.582-12.95-1.64-36.445-3.961-62.758-2.742l-23.539.78c9.282 20.763 15.551 14.4 18.969 38.419 3.86 28.12 2.34 96.547-25.355 96.547C141.246 136.348 91.41 3.004 89.825 0H0l8.219 20.566c66.238 165.82 149.082 242.621 262.43 249.008l14.75.426 1.054-14.324c1.594-22.121 12.692-53.965 32.375-53.965 29.082 0 37.485 8.469 56.664 32.168C393.934 256.602 406.641 270 436.398 270H512l-10.781-21.68c-16.836-33.8-50.606-62.777-63.793-79.586-4.778-6.328-9.48-16.332-4.613-28.433 3.98-10.54 15.832-32.52 24.93-44.82zm0 0"/></symbol></svg>